<?xml version="1.0" encoding="UTF-8" standalone="no"?>
<svg width="282px" height="265px" viewBox="0 0 282 265" version="1.1" xmlns="http://www.w3.org/2000/svg" xmlns:xlink="http://www.w3.org/1999/xlink">
    <!-- Generator: sketchtool 41.2 (35397) - http://www.bohemiancoding.com/sketch -->
    <title>23772243-1731-4B84-9DD9-1A9DD8B4553F</title>
    <desc>Created with sketchtool.</desc>
    <defs>
        <polygon id="path-1" points="264.460348 0.645217391 0.75773913 0.645217391 0.75773913 264.347478 264.460348 264.347478 264.460348 0.645217391"></polygon>
    </defs>
    <g id="404-page" stroke="none" stroke-width="1" fill="none" fill-rule="evenodd">
        <g id="v1---404" transform="translate(-785.000000, -216.000000)">
            <g id="Page-1" transform="translate(786.000000, 216.000000)">
                <g id="Group-3" transform="translate(6.956522, 0.224348)">
                    <mask id="mask-2" fill="white">
                        <use xlink:href="#path-1"></use>
                    </mask>
                    <g id="Clip-2"></g>
                    <path d="M264.460348,132.496174 C264.460348,205.316174 205.428174,264.347478 132.609043,264.347478 C59.789913,264.347478 0.75773913,205.316174 0.75773913,132.496174 C0.75773913,59.6761739 59.789913,0.644869565 132.609043,0.644869565 C205.428174,0.644869565 264.460348,59.6761739 264.460348,132.496174" id="Fill-1" fill="#E6E6E6" mask="url(#mask-2)"></path>
                </g>
                <path d="M279.13087,61.3435652 C279.204783,55.0392174 271.903913,53.6426957 268.340435,52.6931304 C196.867391,33.6496522 147.597826,54.0783478 147.597826,54.0783478 C143.180435,55.9096522 139.565652,61.3218261 139.565652,66.1044348 C139.565652,61.3218261 135.95087,55.9096522 131.533478,54.0783478 C131.533478,54.0783478 82.263913,33.6496522 10.7908696,52.6931304 C7.2273913,53.6426957 -0.0734782609,55.0392174 0.000434782609,61.3435652 C0.130869565,72.4322609 0.000434782609,84.2783478 0.000434782609,89.0609565 L0.000434782609,221.611391 C0.000434782609,226.394 3.77,229.257478 8.37782609,227.974 C8.37782609,227.974 56.3317391,214.627913 123.043913,233.130522 L123.043913,233.910522 C123.043913,236.301826 125.000435,238.258348 127.391739,238.258348 L151.739565,238.258348 C154.13087,238.258348 156.087391,236.301826 156.087391,233.910522 L156.087391,233.130522 C222.799565,214.627913 270.753478,227.974 270.753478,227.974 C275.361304,229.257478 279.13087,226.394 279.13087,221.611391 L279.13087,89.0609565 C279.13087,84.2783478 279.000435,72.4322609 279.13087,61.3435652" id="Fill-4" fill="#E6E6E6"></path>
                <path d="M279.13087,61.3435652 C279.204783,55.0392174 271.903913,53.6426957 268.340435,52.6931304 C196.867391,33.6496522 147.597826,54.0783478 147.597826,54.0783478 C143.180435,55.9096522 139.565652,61.3218261 139.565652,66.1044348 C139.565652,61.3218261 135.95087,55.9096522 131.533478,54.0783478 C131.533478,54.0783478 82.263913,33.6496522 10.7908696,52.6931304 C7.2273913,53.6426957 -0.0734782609,55.0392174 0.000434782609,61.3435652 C0.130869565,72.4322609 0.000434782609,84.2783478 0.000434782609,89.0609565 L0.000434782609,221.611391 C0.000434782609,226.394 3.77,229.257478 8.37782609,227.974 C8.37782609,227.974 56.3317391,214.627913 123.043913,233.130522 L123.043913,233.910522 C123.043913,236.301826 125.000435,238.258348 127.391739,238.258348 L151.739565,238.258348 C154.13087,238.258348 156.087391,236.301826 156.087391,233.910522 L156.087391,233.130522 C222.799565,214.627913 270.753478,227.974 270.753478,227.974 C275.361304,229.257478 279.13087,226.394 279.13087,221.611391 L279.13087,89.0609565 C279.13087,84.2783478 279.000435,72.4322609 279.13087,61.3435652 Z" id="Stroke-6" stroke="#333333" stroke-width="2" stroke-linejoin="round"></path>
                <path d="M139.565652,53.0066957 C139.565652,53.0066957 198.671739,28.4997391 270.175217,51.5649565 L270.175217,214.811043 C270.175217,214.811043 209.916087,198.033652 139.565652,222.251043 L139.565652,53.0066957 Z" id="Fill-8" fill="#FFFFFF"></path>
                <path d="M139.565652,53.0066957 C139.565652,53.0066957 198.671739,28.4997391 270.175217,51.5649565 L270.175217,214.811043 C270.175217,214.811043 209.916087,198.033652 139.565652,222.251043 L139.565652,53.0066957 Z" id="Stroke-10" stroke="#333333" stroke-width="2" stroke-linejoin="round"></path>
                <path d="M139.565652,53.0066957 C139.565652,53.0066957 198.671739,28.4997391 270.175217,51.5649565 L270.175217,214.811043 C270.175217,214.811043 209.916087,198.033652 139.565652,222.251043 L139.565652,53.0066957 Z" id="Fill-12" fill="#FFFFFF"></path>
                <path d="M139.565652,53.0066957 C139.565652,53.0066957 198.671739,28.4997391 270.175217,51.5649565 L270.175217,214.811043 C270.175217,214.811043 209.916087,198.033652 139.565652,222.251043 L139.565652,53.0066957 Z" id="Stroke-14" stroke="#333333" stroke-width="2" stroke-linejoin="round"></path>
                <path d="M139.565652,53.0066957 C139.565652,53.0066957 80.4595652,28.4997391 8.95608696,51.5649565 L8.95608696,214.811043 C8.95608696,214.811043 69.2152174,198.033652 139.565652,222.251043 L139.565652,53.0066957 Z" id="Fill-16" fill="#80D5E6"></path>
                <path d="M139.565652,53.0066957 C139.565652,53.0066957 80.4595652,28.4997391 8.95608696,51.5649565 L8.95608696,214.811043 C8.95608696,214.811043 69.2152174,198.033652 139.565652,222.251043 L139.565652,53.0066957 Z" id="Stroke-18" stroke="#333333" stroke-width="2" stroke-linejoin="round"></path>
                <path d="M139.565652,52.8134783 C139.565652,52.8134783 88.4752174,19.9073913 19.4865217,28.8552174 L19.4865217,199.159565 C19.4865217,199.159565 84.7221739,186.17 139.565652,222.251739 L139.565652,52.8134783 Z" id="Fill-20" fill="#FFFFFF"></path>
                <path d="M139.565652,52.8134783 C139.565652,52.8134783 88.4752174,19.9073913 19.4865217,28.8552174 L19.4865217,199.159565 C19.4865217,199.159565 84.7221739,186.17 139.565652,222.251739 L139.565652,52.8134783 Z" id="Stroke-22" stroke="#333333" stroke-width="2" stroke-linejoin="round"></path>
                <path d="M139.565652,53.2546957 C139.565652,53.2546957 99.5473913,12.0851304 44.8465217,16.1164348 L44.8465217,185.687739 C44.8465217,185.687739 91.1986957,177.627739 139.565652,222.252087 L139.565652,53.2546957 Z" id="Fill-24" fill="#FFFFFF"></path>
                <path d="M139.565652,53.2546957 C139.565652,53.2546957 99.5473913,12.0851304 44.8465217,16.1164348 L44.8465217,185.687739 C44.8465217,185.687739 91.1986957,177.627739 139.565652,222.252087 L139.565652,53.2546957 Z" id="Stroke-26" stroke="#333333" stroke-width="2" stroke-linejoin="round"></path>
                <path d="M124.348261,69.8736522 C124.348261,69.8736522 96.8491304,39.6936522 59.2604348,42.6484348" id="Stroke-28" stroke="#E6E6E6" stroke-width="4" stroke-linecap="round" stroke-linejoin="round"></path>
                <path d="M124.348261,92.7897391 C124.348261,92.7897391 96.8491304,62.6097391 59.2604348,65.5645217" id="Stroke-30" stroke="#E6E6E6" stroke-width="4" stroke-linecap="round" stroke-linejoin="round"></path>
                <path d="M124.348261,115.705826 C124.348261,115.705826 96.8491304,85.5258261 59.2604348,88.4806087" id="Stroke-32" stroke="#E6E6E6" stroke-width="4" stroke-linecap="round" stroke-linejoin="round"></path>
                <path d="M124.348261,138.621913 C124.348261,138.621913 96.8491304,108.441913 59.2604348,111.396696" id="Stroke-34" stroke="#E6E6E6" stroke-width="4" stroke-linecap="round" stroke-linejoin="round"></path>
                <path d="M124.348261,161.538 C124.348261,161.538 96.8491304,131.358 59.2604348,134.312783" id="Stroke-36" stroke="#E6E6E6" stroke-width="4" stroke-linecap="round" stroke-linejoin="round"></path>
                <path d="M124.348261,184.454174 C124.348261,184.454174 96.8491304,154.274174 59.2604348,157.228957" id="Stroke-38" stroke="#E6E6E6" stroke-width="4" stroke-linecap="round" stroke-linejoin="round"></path>
                <g id="Group-43" transform="translate(139.130435, 37.615652)">
                    <path d="M0.435217391,15.6390435 C0.435217391,15.6390435 11.8847826,-4.1566087 38.2613043,1.06078261 L20.2178261,17.2929565 L40.0004348,21.3512174 L21.45,32.2581739 L38.2613043,41.459913 L23.1891304,56.7129565 L35.6526087,69.4668696 L20.87,86.8581739 L35.3630435,96.7129565 L22.8986957,111.786 L35.0726087,123.669478 L23.4065217,139.321652 L40.0004348,151.206 L21.45,159.321652 L38.5508696,168.018174 C38.5508696,168.018174 2.60913043,177.486 0.435217391,184.635565 L0.435217391,15.1981739" id="Fill-40" fill="#FFFFFF"></path>
                    <path d="M0.435217391,15.6390435 C0.435217391,15.6390435 11.8847826,-4.1566087 38.2613043,1.06078261 L20.2178261,17.2929565 L40.0004348,21.3512174 L21.45,32.2581739 L38.2613043,41.459913 L23.1891304,56.7129565 L35.6526087,69.4668696 L20.87,86.8581739 L35.3630435,96.7129565 L22.8986957,111.786 L35.0726087,123.669478 L23.4065217,139.321652 L40.0004348,151.206 L21.45,159.321652 L38.5508696,168.018174 C38.5508696,168.018174 2.60913043,177.486 0.435217391,184.635565 L0.435217391,15.1981739" id="Stroke-42" stroke="#333333" stroke-width="2" stroke-linejoin="round"></path>
                </g>
            </g>
        </g>
    </g>
</svg>